<svg width="16" height="17" viewBox="0 0 16 17" fill="none" xmlns="http://www.w3.org/2000/svg">
<g id="Interface Delete Bin 2" clip-path="url(#clip0_525_1569)">
<g id="Group">
<path id="Vector" d="M1.79199 4.95654H14.6491" stroke="#6F767E" stroke-width="1.5" stroke-linecap="round" stroke-linejoin="round"/>
<path id="Vector_2" d="M3.39893 4.95654H13.0418V15.2423C13.0418 15.5454 12.9289 15.8361 12.728 16.0504C12.527 16.2647 12.2545 16.3851 11.9704 16.3851H4.47035C4.18619 16.3851 3.91367 16.2647 3.71274 16.0504C3.51181 15.8361 3.39893 15.5454 3.39893 15.2423V4.95654Z" stroke="#6F767E" stroke-width="1.5" stroke-linecap="round" stroke-linejoin="round"/>
<path id="Vector_3" d="M5.54199 4.95665V4.38522C5.54199 3.62746 5.8242 2.90073 6.32653 2.36491C6.82886 1.8291 7.51016 1.52808 8.22056 1.52808C8.93096 1.52808 9.61227 1.8291 10.1146 2.36491C10.6169 2.90073 10.8991 3.62746 10.8991 4.38522V4.95665" stroke="#6F767E" stroke-width="1.5" stroke-linecap="round" stroke-linejoin="round"/>
<path id="Vector_4" d="M6.61328 7.24243V13.5281" stroke="#6F767E" stroke-width="1.5" stroke-linecap="round" stroke-linejoin="round"/>
<path id="Vector_5" d="M9.82764 7.24243V13.5281" stroke="#6F767E" stroke-width="1.5" stroke-linecap="round" stroke-linejoin="round"/>
</g>
</g>
<defs>
<clipPath id="clip0_525_1569">
<rect width="15" height="16" fill="white" transform="translate(0.720703 0.956543)"/>
</clipPath>
</defs>
</svg>
