<svg width="22" height="21" viewBox="0 0 22 21" fill="none" xmlns="http://www.w3.org/2000/svg">
<g clip-path="url(#clip0_521_1544)">
<path d="M20.0743 9.95314C20.3094 10.2012 20.4395 10.5236 20.4395 10.8578C20.4395 11.192 20.3094 11.5143 20.0743 11.7624C18.5857 13.2881 15.1974 16.2585 11.242 16.2585C7.28668 16.2585 3.89839 13.2881 2.40981 11.7624C2.1747 11.5143 2.04456 11.192 2.04456 10.8578C2.04456 10.5236 2.1747 10.2012 2.40981 9.95314C3.89839 8.42744 7.28668 5.45703 11.242 5.45703C15.1974 5.45703 18.5857 8.42744 20.0743 9.95314Z" stroke="white" stroke-width="1.29" stroke-linecap="round" stroke-linejoin="round"/>
<path d="M11.242 13.5582C12.8079 13.5582 14.0774 12.3492 14.0774 10.8578C14.0774 9.36647 12.8079 8.15747 11.242 8.15747C9.67606 8.15747 8.40662 9.36647 8.40662 10.8578C8.40662 12.3492 9.67606 13.5582 11.242 13.5582Z" stroke="white" stroke-width="1.29" stroke-linecap="round" stroke-linejoin="round"/>
</g>
<defs>
<clipPath id="clip0_521_1544">
<rect width="21" height="20" fill="white" transform="translate(0.867188 0.157959)"/>
</clipPath>
</defs>
</svg>
