<svg width="17" height="17" viewBox="0 0 17 17" fill="none" xmlns="http://www.w3.org/2000/svg">
<g id="Interface Edit Write 1" clip-path="url(#clip0_521_1801)">
<g id="Group">
<path id="Vector" d="M1.25269 16.385H13.8241" stroke="#6F767E" stroke-width="1.5" stroke-linecap="round" stroke-linejoin="round"/>
<path id="Vector_2" d="M8.10972 12.385L4.68115 13.0022L5.25258 9.52787L12.944 1.8593C13.0503 1.75218 13.1767 1.66716 13.3159 1.60913C13.4552 1.55111 13.6046 1.52124 13.7554 1.52124C13.9063 1.52124 14.0557 1.55111 14.195 1.60913C14.3342 1.66716 14.4606 1.75218 14.5669 1.8593L15.7783 3.07072C15.8854 3.17697 15.9704 3.30337 16.0285 3.44264C16.0865 3.5819 16.1164 3.73128 16.1164 3.88215C16.1164 4.03302 16.0865 4.1824 16.0285 4.32167C15.9704 4.46094 15.8854 4.58734 15.7783 4.69358L8.10972 12.385Z" stroke="#6F767E" stroke-width="1.5" stroke-linecap="round" stroke-linejoin="round"/>
</g>
</g>
<defs>
<clipPath id="clip0_521_1801">
<rect width="16" height="16" fill="white" transform="translate(0.681152 0.956543)"/>
</clipPath>
</defs>
</svg>
