<svg width="23" height="24" viewBox="0 0 23 24" fill="none" xmlns="http://www.w3.org/2000/svg">
<path d="M9.33435 18.632L12.1759 21.5986C12.3523 21.783 12.5708 21.9172 12.8108 21.9885C13.0507 22.0598 13.3041 22.0658 13.5469 22.0059C13.7897 21.946 14.0139 21.8223 14.1981 21.6464C14.3823 21.4705 14.5204 21.2483 14.5993 21.0009L19.2627 6.36131C19.3488 6.09184 19.3614 5.8026 19.2991 5.52606C19.2367 5.24952 19.1019 4.99661 18.9097 4.79571C18.7176 4.5948 18.4757 4.45385 18.2111 4.38868C17.9466 4.3235 17.67 4.33666 17.4122 4.4267L3.40911 9.30612C3.17322 9.38899 2.96144 9.53336 2.79376 9.7256C2.62609 9.91784 2.50807 10.1516 2.45084 10.4048C2.39362 10.658 2.39909 10.9223 2.46673 11.1726C2.53437 11.423 2.66196 11.6512 2.83742 11.8357L6.40689 15.5715L6.28578 20.2889L9.33435 18.632Z" stroke="white" stroke-width="1.5" stroke-linecap="round" stroke-linejoin="round"/>
<path d="M18.8447 4.73169L6.40686 15.5715" stroke="white" stroke-width="1.5" stroke-linecap="round" stroke-linejoin="round"/>
</svg>
